<svg xmlns="http://www.w3.org/2000/svg" width="110" height="132.834" viewBox="0 0 110 132.834">
  <g id="Group" transform="translate(-212 -63)">
    <g id="Group-2" data-name="Group">
      <g id="Group-3" data-name="Group">
        <path id="Vector" d="M106.7-.429c-.013.013-.026.013-.039.026a1.734,1.734,0,0,1-.312.143,1.484,1.484,0,0,1-.338.117,1.511,1.511,0,0,1-.234.052c-.013,0-.026.013-.052.013a.185.185,0,0,0-.078.026,1.764,1.764,0,0,1-.377.039C105.139,0,105,0,104.853,0c-.039,0-.091-.013-.143-.013h-.1c-.078-.013-.156-.013-.234-.026a4.772,4.772,0,0,1-.559-.117c-.078-.026-.156-.052-.247-.078s-.156-.052-.221-.078a2.343,2.343,0,0,1-.273-.1,8.15,8.15,0,0,1-.9-.442L6.342-56.209a9.909,9.909,0,0,1-1.2-.832,4.326,4.326,0,0,1-.364-.325c-.182-.156-.364-.312-.546-.481-.091-.091-.169-.182-.247-.273s-.143-.143-.208-.221-.156-.156-.234-.247c-.182-.208-.351-.416-.52-.637a2.635,2.635,0,0,1-.169-.234c-.039-.052-.065-.091-.1-.143A.575.575,0,0,1,2.6-59.8c-.13-.182-.247-.364-.377-.546S2-60.705,1.9-60.887c-.013-.026-.026-.039-.026-.052a.068.068,0,0,1-.026-.052c-.091-.143-.169-.3-.247-.442-.1-.182-.195-.364-.286-.546l-.234-.507c0-.013,0-.026-.013-.026s-.013-.013-.013-.026C.975-62.72.9-62.915.819-63.11s-.143-.4-.208-.6c-.039-.1-.065-.208-.091-.3-.013-.052-.026-.091-.039-.143a1.42,1.42,0,0,1-.065-.221c-.065-.247-.13-.481-.182-.728-.039-.143-.052-.3-.078-.442l-.039-.234c-.013-.078-.026-.143-.039-.208A9.638,9.638,0,0,1,0-67.2l.169-60.38c0-2.014.715-3.418,1.858-4.081.429-.247.845-.494,1.261-.741-1.144.663-1.858,2.079-1.858,4.094L1.261-67.944a11.347,11.347,0,0,0,.117,1.456c.013.078.026.156.039.221a10.754,10.754,0,0,0,.325,1.391c.013.039.026.078.039.13a13.178,13.178,0,0,0,.559,1.508c0,.013,0,.013.013.026a13.408,13.408,0,0,0,.754,1.495c.013.013.013.026.026.039a13.716,13.716,0,0,0,.9,1.365.721.721,0,0,1,.078.1,13.513,13.513,0,0,0,.936,1.131c.065.078.143.156.208.221.26.273.546.52.819.767.117.1.221.208.351.312a9.909,9.909,0,0,0,1.2.832L103.45-1.612a7.776,7.776,0,0,0,1.17.546l.234.078a4.379,4.379,0,0,0,1.04.221h.1a3.742,3.742,0,0,0,1.014-.052c.026,0,.039-.013.065-.013a2.76,2.76,0,0,0,.91-.351C107.557-.923,107.128-.676,106.7-.429Z" transform="translate(322 63) rotate(180)" fill="#f2b006"/>
        <g id="Group-4" data-name="Group">
          <g id="Group-5" data-name="Group">
            <path id="Vector-2" data-name="Vector" d="M102.189-.87c3.522,2.027,6.368.39,6.381-3.652l.169-60.38A13.962,13.962,0,0,0,102.4-75.9L6.563-131.222c-3.509-2.027-6.368-.39-6.381,3.652L0-67.2A14,14,0,0,0,6.342-56.208Z" transform="translate(320.739 63.742) rotate(180)" fill="#314869"/>
          </g>
        </g>
      </g>
    </g>
    <g id="Group-6" data-name="Group">
      <g id="Group-7" data-name="Group">
        <g id="Group-8" data-name="Group">
          <path id="Vector-3" data-name="Vector" d="M5.263,0l.013-2.56L.013-5.6,0-3.028Z" transform="translate(313.89 129.658) rotate(180)" fill="#f2b006"/>
        </g>
        <g id="Group-9" data-name="Group">
          <path id="Vector-4" data-name="Vector" d="M5.263,0l.013-2.56L.013-5.6,0-3.041Z" transform="translate(313.903 125.98) rotate(180)" fill="#f2b006"/>
        </g>
      </g>
      <g id="Group-10" data-name="Group">
        <path id="Vector-5" data-name="Vector" d="M5.263,0V-2.573L0-5.614v2.573Z" transform="translate(313.877 133.31) rotate(180)" fill="#f2b006"/>
      </g>
      <g id="Group-11" data-name="Group">
        <path id="Vector-6" data-name="Vector" d="M5.25,0l.013-2.6L0-5.627v2.586Z" transform="translate(313.864 136.987) rotate(180)" fill="#f2b006"/>
      </g>
      <g id="Group-12" data-name="Group">
        <g id="Group-13" data-name="Group">
          <path id="Vector-7" data-name="Vector" d="M5.263,0V-2.6L.013-5.64,0-3.041Z" transform="translate(301.453 129.814) rotate(180)" fill="#f2b006"/>
        </g>
        <g id="Group-14" data-name="Group">
          <path id="Vector-8" data-name="Vector" d="M5.263,0l.013-2.56L.013-5.6,0-3.028Z" transform="translate(301.466 126.149) rotate(180)" fill="#f2b006"/>
        </g>
        <g id="Group-15" data-name="Group">
          <path id="Vector-9" data-name="Vector" d="M11.463,0l.013-2.56L5.263-6.147l.026-11.034L.052-20.209,0-6.615Z" transform="translate(307.691 118.819) rotate(180)" fill="#f2b006"/>
        </g>
      </g>
      <g id="Group-16" data-name="Group">
        <path id="Vector-10" data-name="Vector" d="M5.263,0l.013-2.573L.013-5.6,0-3.041Z" transform="translate(301.479 122.484) rotate(180)" fill="#f2b006"/>
      </g>
      <g id="Group-17" data-name="Group">
        <path id="Vector-11" data-name="Vector" d="M3.665,0l.026-10.371L.026-12.476,0-2.105Z" transform="translate(313.825 154.026) rotate(180)" fill="#fff"/>
      </g>
      <g id="Group-18" data-name="Group">
        <path id="Vector-12" data-name="Vector" d="M3.678,0,3.7-10.358.039-12.476,0-2.105Z" transform="translate(307.145 150.166) rotate(180)" fill="#fff"/>
      </g>
      <g id="Group-19" data-name="Group">
        <path id="Vector-13" data-name="Vector" d="M3.652,0l.026-10.358L.026-12.476,0-2.105Z" transform="translate(300.439 146.306) rotate(180)" fill="#fff"/>
      </g>
      <g id="Group-20" data-name="Group">
        <path id="Vector-14" data-name="Vector" d="M3.652,0l.039-10.358L.026-12.476,0-2.105Z" transform="translate(293.759 142.446) rotate(180)" fill="#fff"/>
      </g>
      <g id="Group-21" data-name="Group">
        <path id="Vector-15" data-name="Vector" d="M3.665,0l.026-10.358L.026-12.476,0-2.105Z" transform="translate(278.866 133.842) rotate(180)" fill="#fff"/>
      </g>
      <g id="Group-22" data-name="Group">
        <path id="Vector-16" data-name="Vector" d="M3.652,0l.039-10.358L.026-12.476,0-2.105Z" transform="translate(272.173 129.983) rotate(180)" fill="#fff"/>
      </g>
      <g id="Group-23" data-name="Group">
        <path id="Vector-17" data-name="Vector" d="M3.678,0,3.7-10.371.026-12.489,0-2.118Z" transform="translate(265.492 126.11) rotate(180)" fill="#fff"/>
      </g>
      <g id="Group-24" data-name="Group">
        <path id="Vector-18" data-name="Vector" d="M3.665,0l.026-10.371L.026-12.489,0-2.118Z" transform="translate(258.799 122.25) rotate(180)" fill="#fff"/>
      </g>
      <g id="Group-25" data-name="Group">
        <path id="Vector-19" data-name="Vector" d="M3.665,0l.026-10.358L.039-12.476,0-2.105Z" transform="translate(243.906 113.659) rotate(180)" fill="#fff"/>
      </g>
      <g id="Group-26" data-name="Group">
        <path id="Vector-20" data-name="Vector" d="M3.665,0l.026-10.371L.026-12.489,0-2.118Z" transform="translate(237.213 109.786) rotate(180)" fill="#fff"/>
      </g>
      <g id="Group-27" data-name="Group">
        <path id="Vector-21" data-name="Vector" d="M3.652,0l.026-10.371L.026-12.489,0-2.118Z" transform="translate(230.52 105.927) rotate(180)" fill="#fff"/>
      </g>
      <g id="Group-28" data-name="Group">
        <path id="Vector-22" data-name="Vector" d="M3.652,0l.039-10.358L.026-12.476,0-2.105Z" transform="translate(223.84 102.08) rotate(180)" fill="#fff"/>
      </g>
      <g id="Group-29" data-name="Group">
        <path id="Vector-23" data-name="Vector" d="M21.9,0V-2.2L.013-14.842,0-12.645Z" transform="translate(313.747 171.544) rotate(180)" fill="#fff"/>
      </g>
      <g id="Group-30" data-name="Group">
        <path id="Vector-24" data-name="Vector" d="M21.9,0V-2.2L.013-14.829,0-12.645Z" transform="translate(242.151 74.957) rotate(180)" fill="#fff"/>
      </g>
      <g id="Group-31" data-name="Group">
        <g id="Group-32" data-name="Group">
          <path id="Vector-25" data-name="Vector" d="M2.144-.558c2.235,1.3,4.042.247,4.042-2.3A8.876,8.876,0,0,0,2.157-9.837,3.388,3.388,0,0,0,.013-10.37,9.786,9.786,0,0,1,1.443-5.6,3.3,3.3,0,0,1,0-2.521,7.078,7.078,0,0,0,2.144-.558Z" transform="translate(226.296 124.811) rotate(180)" fill="#f2b006"/>
        </g>
        <g id="Group-33" data-name="Group">
          <path id="Vector-26" data-name="Vector" d="M1.261,0A2.758,2.758,0,0,0,2.547-2.638a8.176,8.176,0,0,0-1.261-4.12A2.79,2.79,0,0,0,0-4.107,8.3,8.3,0,0,0,1.261,0Z" transform="translate(228.18 128.215) rotate(180)" fill="#f2b006"/>
        </g>
      </g>
      <g id="Group-34" data-name="Group">
        <path id="Vector-27" data-name="Vector" d="M4.029-.545a3.351,3.351,0,0,0,2.144.52A9.706,9.706,0,0,1,4.757-4.755,3.4,3.4,0,0,1,6.2-7.875,7.563,7.563,0,0,0,4.055-9.824C1.832-11.111.013-10.071,0-7.5A8.9,8.9,0,0,0,4.029-.545Z" transform="translate(233.717 128.008) rotate(180)" fill="#f2b006"/>
      </g>
    </g>
  </g>
</svg>
